<?xml version="1.0" encoding="UTF-8" standalone="no"?>
<!-- Generator: Adobe Illustrator 17.0.0, SVG Export Plug-In . SVG Version: 6.00 Build 0)  -->

<svg
   xmlns:dc="http://purl.org/dc/elements/1.1/"
   xmlns:cc="http://creativecommons.org/ns#"
   xmlns:rdf="http://www.w3.org/1999/02/22-rdf-syntax-ns#"
   xmlns:svg="http://www.w3.org/2000/svg"
   xmlns="http://www.w3.org/2000/svg"
   xmlns:sodipodi="http://sodipodi.sourceforge.net/DTD/sodipodi-0.dtd"
   xmlns:inkscape="http://www.inkscape.org/namespaces/inkscape"
   version="1.1"
   id="Capa_1"
   x="0px"
   y="0px"
   width="64px"
   height="64px"
   viewBox="0 0 64 64"
   style="enable-background:new 0 0 64 64;"
   xml:space="preserve"
   inkscape:version="0.48.5 r10040"
   sodipodi:docname="all.svg"><metadata
   id="metadata9"><rdf:RDF><cc:Work
       rdf:about=""><dc:format>image/svg+xml</dc:format><dc:type
         rdf:resource="http://purl.org/dc/dcmitype/StillImage" /></cc:Work></rdf:RDF></metadata><defs
   id="defs7" /><sodipodi:namedview
   pagecolor="#ffffff"
   bordercolor="#666666"
   borderopacity="1"
   objecttolerance="10"
   gridtolerance="10"
   guidetolerance="10"
   inkscape:pageopacity="0"
   inkscape:pageshadow="2"
   inkscape:window-width="1366"
   inkscape:window-height="715"
   id="namedview5"
   showgrid="false"
   inkscape:zoom="3.6875"
   inkscape:cx="32"
   inkscape:cy="32"
   inkscape:window-x="-8"
   inkscape:window-y="-8"
   inkscape:window-maximized="1"
   inkscape:current-layer="Capa_1" />
<path
   d="M57.062,31.398c0.932-1.025,0.842-2.596-0.201-3.508L33.884,7.785c-1.043-0.912-2.715-0.893-3.736,0.043L7.093,28.962  c-1.021,0.936-1.071,2.505-0.111,3.503l0.578,0.602c0.959,0.998,2.509,1.117,3.46,0.265l1.723-1.543v22.59  c0,1.386,1.123,2.508,2.508,2.508h8.987c1.385,0,2.508-1.122,2.508-2.508V38.575h11.463v15.804c-0.02,1.385,0.971,2.507,2.356,2.507  h9.524c1.385,0,2.508-1.122,2.508-2.508V32.107c0,0,0.476,0.417,1.063,0.933c0.586,0.515,1.817,0.102,2.749-0.924L57.062,31.398z"
   id="path3" />
<path
   style="fill:#ffffff"
   d="M 14.562712,56.584309 C 14.264407,56.462216 13.776271,56.091173 13.477966,55.759772 12.957809,55.181904 12.930039,54.674001 12.8,43.35997 12.665671,31.672748 12.659515,31.568126 12.139876,32.142656 c -0.981141,1.084785 -2.2593171,1.70424 -3.124439,1.514227 -1.150604,-0.252715 -2.4527251,-1.83 -2.4527251,-2.971034 0,-1.044414 -0.055569,-0.98979 15.4061471,-15.144035 5.552482,-5.082954 9.036856,-8.0814924 9.51221,-8.1858977 0.412572,-0.090616 1.045908,-0.051091 1.407413,0.087833 0.846173,0.3251789 23.239597,19.8550252 24.047111,20.9720672 0.913324,1.263407 0.785234,2.016078 -0.574487,3.375799 -1.327666,1.327664 -2.005166,1.460558 -3.18026,0.623817 l -0.787626,-0.560839 0,11.561719 c 0,7.763403 -0.09626,11.741586 -0.293014,12.10922 -0.57152,1.067897 -1.832762,1.315146 -6.708656,1.315146 -2.651417,0 -4.941329,-0.126514 -5.440678,-0.300589 -1.59082,-0.554562 -1.659347,-0.967159 -1.659347,-9.991029 l 0,-8.14906 -5.830508,0 -5.830509,0 0,8.14906 c 0,9.02387 -0.06852,9.436467 -1.659346,9.991029 -0.996595,0.347417 -9.57859,0.383876 -10.40845,0.04422 l 0,0 z"
   id="path3104"
   inkscape:connector-curvature="0" /></svg>