<?xml version="1.0" encoding="UTF-8" standalone="no"?>
<!-- Generator: Adobe Illustrator 16.0.0, SVG Export Plug-In . SVG Version: 6.00 Build 0)  -->

<svg
   xmlns:dc="http://purl.org/dc/elements/1.1/"
   xmlns:cc="http://creativecommons.org/ns#"
   xmlns:rdf="http://www.w3.org/1999/02/22-rdf-syntax-ns#"
   xmlns:svg="http://www.w3.org/2000/svg"
   xmlns="http://www.w3.org/2000/svg"
   xmlns:sodipodi="http://sodipodi.sourceforge.net/DTD/sodipodi-0.dtd"
   xmlns:inkscape="http://www.inkscape.org/namespaces/inkscape"
   version="1.1"
   id="Layer_1"
   x="0px"
   y="0px"
   width="512px"
   height="512px"
   viewBox="0 0 512 512"
   enable-background="new 0 0 512 512"
   xml:space="preserve"
   inkscape:version="0.48.5 r10040"
   sodipodi:docname="computer.svg"><metadata
   id="metadata2999"><rdf:RDF><cc:Work
       rdf:about=""><dc:format>image/svg+xml</dc:format><dc:type
         rdf:resource="http://purl.org/dc/dcmitype/StillImage" /></cc:Work></rdf:RDF></metadata><defs
   id="defs2997" /><sodipodi:namedview
   pagecolor="#ffffff"
   bordercolor="#666666"
   borderopacity="1"
   objecttolerance="10"
   gridtolerance="10"
   guidetolerance="10"
   inkscape:pageopacity="0"
   inkscape:pageshadow="2"
   inkscape:window-width="1366"
   inkscape:window-height="715"
   id="namedview2995"
   showgrid="false"
   inkscape:zoom="0.4609375"
   inkscape:cx="256"
   inkscape:cy="169.22034"
   inkscape:window-x="-8"
   inkscape:window-y="-8"
   inkscape:window-maximized="1"
   inkscape:current-layer="Layer_1" />
<g
   id="g2987">
	<path
   d="M128,80H32C14.313,80,0,94.344,0,112v352c0,17.688,14.313,32,32,32h96c17.688,0,32-14.313,32-32V112   C160,94.344,145.688,80,128,80z M48,400c-8.844,0-16-7.156-16-16s7.156-16,16-16s16,7.156,16,16S56.844,400,48,400z M128,208H32   v-32h96V208z M128,144H32v-32h96V144z"
   id="path2989" />
	<path
   d="M336,432v-32h-96v32c-17.688,0-32,14.313-32,32h160C368,446.313,353.688,432,336,432z"
   id="path2991" />
	<path
   d="M480,16H96c-17.688,0-32,14.344-32,32h32h96h288v256H192v64h288c17.688,0,32-14.313,32-32V48C512,30.344,497.688,16,480,16   z M288,352c-8.844,0-16-7.156-16-16s7.156-16,16-16s16,7.156,16,16S296.844,352,288,352z"
   id="path2993" />
</g>
<path
   style="fill:#ffffff"
   d="M 25.895997,494.14513 C 16.206813,491.79602 5.2031254,481.57399 2.7135249,472.60945 1.2355892,467.28773 0.47035032,403.16292 0.49364372,286.58983 0.52776266,115.8397 0.69655409,108.32284 4.69439,99.516007 12.555898,82.197889 15.101846,81.590262 79.841881,81.580991 c 55.268379,-0.0079 56.805349,0.110156 63.999999,4.916491 15.80987,10.561678 14.95777,-0.940877 14.96153,201.966448 0.003,180.65483 -0.0288,181.99909 -4.5401,190.02593 -8.78754,15.63531 -11.68297,16.32473 -70.303988,16.74001 -28.637288,0.20285 -54.765785,-0.28528 -58.063325,-1.08474 l 0,0 z m 33.307726,-97.71646 c 6.303913,-5.1046 6.817774,-17.59512 0.988845,-24.03601 -6.093073,-6.73278 -19.117335,-6.06851 -24.889344,1.26941 -5.704832,7.25252 -5.704832,13.85724 0,21.10976 5.47118,6.95548 16.419665,7.71445 23.900499,1.65684 l 0,0 z m 69.230177,-204.21172 0,-17.35593 -48.813561,0 -48.813559,0 0,17.35593 0,17.35593 48.813559,0 48.813561,0 0,-17.35593 z m 0,-64 0,-16.27119 -48.813561,0 -48.813559,0 0,16.27119 0,16.27119 48.813559,0 48.813561,0 0,-16.27119 z"
   id="path3098"
   inkscape:connector-curvature="0" /><path
   style="fill:#ffffff"
   d="m 193.51864,336.56029 0,-31.52978 144.27119,0 144.27119,0 0,-129.08475 0,-129.084743 -208.50638,0 -208.506377,0 1.46686,-5.966102 c 2.45144,-9.970648 7.584241,-15.92978 17.498141,-20.315169 9.139144,-4.042678 15.981134,-4.161147 207.545826,-3.593678 l 198.09515,0.586813 7.08358,5.052395 c 14.1639,10.102456 13.52741,2.097185 13.51847,170.026314 -0.009,147.43942 -0.14904,152.74563 -4.24305,159.46003 -9.36682,15.3621 -2.02276,14.68039 -165.51155,15.36393 l -146.98305,0.61453 0,-31.52979 z m 105.89601,11.77553 c 8.92585,-8.31569 4.10921,-27.24812 -7.18414,-28.23815 -13.00235,-1.13985 -20.61017,4.65855 -20.61017,15.70827 0,14.60141 17.23231,22.36989 27.79431,12.52988 z"
   id="path3100"
   inkscape:connector-curvature="0" /><path
   style="fill:#ffffff"
   d="m 208.70508,461.14747 c 0,-1.24076 1.89631,-5.97298 4.21401,-10.51606 4.69502,-9.20299 12.0666,-14.89092 21.82917,-16.84343 l 6.4992,-1.29984 0,-16 0,-16 46.64407,0 46.64406,0 0,15.82122 0,15.82122 9.61603,2.5719 c 10.36056,2.77103 19.2203,11.96519 21.90788,22.73481 l 1.48885,5.9661 -79.42163,0 c -53.52995,0 -79.42164,-0.73544 -79.42164,-2.25592 z"
   id="path3102"
   inkscape:connector-curvature="0" /></svg>