<?xml version="1.0" encoding="UTF-8" standalone="no"?>
<!-- Generator: Adobe Illustrator 16.0.0, SVG Export Plug-In . SVG Version: 6.00 Build 0)  -->

<svg
   xmlns:dc="http://purl.org/dc/elements/1.1/"
   xmlns:cc="http://creativecommons.org/ns#"
   xmlns:rdf="http://www.w3.org/1999/02/22-rdf-syntax-ns#"
   xmlns:svg="http://www.w3.org/2000/svg"
   xmlns="http://www.w3.org/2000/svg"
   xmlns:sodipodi="http://sodipodi.sourceforge.net/DTD/sodipodi-0.dtd"
   xmlns:inkscape="http://www.inkscape.org/namespaces/inkscape"
   version="1.1"
   id="Layer_1"
   x="0px"
   y="0px"
   width="982.7796"
   height="982.7796"
   viewBox="0 0 982.7796 982.7796"
   enable-background="new 0 0 512 512"
   xml:space="preserve"
   inkscape:version="0.48.4 r9939"
   sodipodi:docname="computer.svg"><metadata
     id="metadata2999"><rdf:RDF><cc:Work
         rdf:about=""><dc:format>image/svg+xml</dc:format><dc:type
           rdf:resource="http://purl.org/dc/dcmitype/StillImage" /></cc:Work></rdf:RDF></metadata><defs
     id="defs2997" /><sodipodi:namedview
     pagecolor="#ffffff"
     bordercolor="#666666"
     borderopacity="1"
     objecttolerance="10"
     gridtolerance="10"
     guidetolerance="10"
     inkscape:pageopacity="0"
     inkscape:pageshadow="2"
     inkscape:window-width="1366"
     inkscape:window-height="702"
     id="namedview2995"
     showgrid="false"
     inkscape:zoom="0.4609375"
     inkscape:cx="870.27899"
     inkscape:cy="517.45766"
     inkscape:window-x="0"
     inkscape:window-y="27"
     inkscape:window-maximized="1"
     inkscape:current-layer="Layer_1"
     fit-margin-top="0"
     fit-margin-left="0"
     fit-margin-right="0"
     fit-margin-bottom="0" /><path
     sodipodi:type="arc"
     style="fill:#fb8521;fill-opacity:1"
     id="path2988"
     sodipodi:cx="296.13559"
     sodipodi:cy="309.15256"
     sodipodi:rx="354.71185"
     sodipodi:ry="354.71185"
     d="m 650.84744,309.15256 a 354.71185,354.71185 0 1 1 -709.423703,0 354.71185,354.71185 0 1 1 709.423703,0 z"
     transform="matrix(1.3853211,0,0,1.3853211,81.146934,63.114254)" /><path
     style="fill:#ffffff"
     d="m 428.59074,570.42537 0,-31.52978 144.27119,0 144.27119,0 0,-129.08475 0,-129.08473 -208.50638,0 -208.50637,0 1.46686,-5.96611 c 2.45144,-9.97064 7.58424,-15.92978 17.49814,-20.31516 9.13914,-4.04268 15.98113,-4.16115 207.54582,-3.59368 l 198.09515,0.58681 7.08358,5.0524 c 14.1639,10.10245 13.52741,2.09718 13.51847,170.0263 -0.009,147.43942 -0.14904,152.74563 -4.24305,159.46003 -9.36682,15.3621 -2.02276,14.68039 -165.51155,15.36393 l -146.98305,0.61453 0,-31.52979 z m 105.89601,11.77553 c 8.92585,-8.31569 4.10921,-27.24812 -7.18414,-28.23815 -13.00235,-1.13985 -20.61017,4.65855 -20.61017,15.70827 0,14.60141 17.23231,22.36989 27.79431,12.52988 z"
     id="path3100"
     inkscape:connector-curvature="0" /><path
     style="fill:#ffffff"
     d="m 443.77718,695.01255 c 0,-1.24076 1.89631,-5.97298 4.21401,-10.51606 4.69502,-9.20299 12.0666,-14.89092 21.82917,-16.84343 l 6.4992,-1.29984 0,-16 0,-16 46.64407,0 46.64406,0 0,15.82122 0,15.82122 9.61603,2.5719 c 10.36056,2.77103 19.2203,11.96519 21.90788,22.73481 l 1.48885,5.9661 -79.42163,0 c -53.52995,0 -79.42164,-0.73544 -79.42164,-2.25592 z"
     id="path3102"
     inkscape:connector-curvature="0" /><path
     style="fill:#ffffff"
     d="m 260.9681,728.01021 c -9.68918,-2.34911 -20.69287,-12.57114 -23.18247,-21.53568 -1.47794,-5.32172 -2.24317,-69.44653 -2.21988,-186.01962 0.0341,-170.75012 0.20291,-178.26698 4.20074,-187.07381 7.86151,-17.31812 10.40746,-17.92575 75.1475,-17.93502 55.26837,-0.008 56.80534,0.11016 63.99999,4.91649 15.80987,10.56168 14.95777,-0.94088 14.96153,201.96644 0.003,180.65483 -0.0288,181.99909 -4.5401,190.02593 -8.78754,15.63531 -11.68297,16.32473 -70.30398,16.74001 -28.63729,0.20285 -54.76579,-0.28528 -58.06333,-1.08474 l 0,0 z m 33.30773,-97.71646 c 6.30391,-5.1046 6.81777,-17.59512 0.98884,-24.03601 -6.09307,-6.73278 -19.11733,-6.06851 -24.88934,1.26941 -5.70483,7.25252 -5.70483,13.85724 0,21.10976 5.47118,6.95548 16.41966,7.71445 23.9005,1.65684 l 0,0 z m 69.23017,-204.21172 0,-17.35593 -48.81356,0 -48.81356,0 0,17.35593 0,17.35593 48.81356,0 48.81356,0 0,-17.35593 z m 0,-63.99999 0,-16.27119 -48.81356,0 -48.81356,0 0,16.27119 0,16.27118 48.81356,0 48.81356,0 0,-16.27118 z"
     id="path3098"
     inkscape:connector-curvature="0" /></svg>