<?xml version="1.0" encoding="UTF-8" standalone="no"?>
<!-- Generator: Adobe Illustrator 16.0.0, SVG Export Plug-In . SVG Version: 6.00 Build 0)  -->

<svg
   xmlns:dc="http://purl.org/dc/elements/1.1/"
   xmlns:cc="http://creativecommons.org/ns#"
   xmlns:rdf="http://www.w3.org/1999/02/22-rdf-syntax-ns#"
   xmlns:svg="http://www.w3.org/2000/svg"
   xmlns="http://www.w3.org/2000/svg"
   xmlns:sodipodi="http://sodipodi.sourceforge.net/DTD/sodipodi-0.dtd"
   xmlns:inkscape="http://www.inkscape.org/namespaces/inkscape"
   version="1.1"
   id="Layer_11"
   x="0px"
   y="0px"
   width="100px"
   height="100px"
   viewBox="0 0 100 100"
   enable-background="new 0 0 100 100"
   xml:space="preserve"
   inkscape:version="0.48.5 r10040"
   sodipodi:docname="crowd.svg"><metadata
   id="metadata3036"><rdf:RDF><cc:Work
       rdf:about=""><dc:format>image/svg+xml</dc:format><dc:type
         rdf:resource="http://purl.org/dc/dcmitype/StillImage" /></cc:Work></rdf:RDF></metadata><defs
   id="defs3034" /><sodipodi:namedview
   pagecolor="#ffffff"
   bordercolor="#666666"
   borderopacity="1"
   objecttolerance="10"
   gridtolerance="10"
   guidetolerance="10"
   inkscape:pageopacity="0"
   inkscape:pageshadow="2"
   inkscape:window-width="1366"
   inkscape:window-height="715"
   id="namedview3032"
   showgrid="false"
   inkscape:zoom="2.36"
   inkscape:cx="50"
   inkscape:cy="50"
   inkscape:window-x="-8"
   inkscape:window-y="-8"
   inkscape:window-maximized="1"
   inkscape:current-layer="Layer_11" />
<g
   id="g3002">
	<path
   d="M50.557,39.671c1.618,0,3.159,0.338,4.558,0.946c0.106-2.286,0.893-4.4,2.158-6.15c-0.889-0.186-1.807-0.285-2.748-0.285   h-8.906c-0.938,0-1.856,0.098-2.739,0.282c1.347,1.869,2.152,4.15,2.165,6.62C46.682,40.184,48.56,39.671,50.557,39.671z"
   id="path3004" />
	<circle
   cx="50.07"
   cy="22.97"
   r="10.496"
   id="circle3006" />
	<path
   d="M66.555,51.376c5.342,0,9.67-4.329,9.67-9.67c0-5.342-4.328-9.67-9.67-9.67c-5.292,0-9.583,4.251-9.663,9.524   c3.049,1.912,5.187,5.146,5.577,8.901C63.711,51.042,65.092,51.376,66.555,51.376z"
   id="path3008" />
	<path
   d="M33.587,32.035c-5.343,0-9.671,4.329-9.671,9.67c0,5.341,4.328,9.67,9.671,9.67c1.892,0,3.651-0.553,5.143-1.493   c0.475-3.091,2.132-5.794,4.499-7.634c0.01-0.181,0.027-0.36,0.027-0.543C43.256,36.364,38.926,32.035,33.587,32.035z"
   id="path3010" />
	<path
   d="M72.836,31.829c3.049,1.912,5.187,5.146,5.576,8.901c1.242,0.581,2.623,0.916,4.086,0.916c5.343,0,9.671-4.329,9.671-9.67   c0-5.341-4.328-9.67-9.671-9.67C77.207,22.305,72.916,26.557,72.836,31.829z"
   id="path3012" />
	<circle
   cx="50.557"
   cy="51.689"
   r="9.671"
   id="circle3014" />
	<path
   d="M70.658,52.035h-8.143c-0.089,3.258-1.479,6.192-3.678,8.301c6.068,1.805,10.508,7.433,10.508,14.081v3.092   c8.04-0.296,12.674-2.573,12.979-2.728l0.646-0.328h0.068V64.417C83.039,57.59,77.485,52.035,70.658,52.035z"
   id="path3016" />
	<path
   d="M86.601,42.305h-8.142c-0.088,3.258-1.479,6.192-3.677,8.301c6.068,1.805,10.508,7.433,10.508,14.081v3.092   c8.039-0.296,12.673-2.573,12.979-2.728l0.646-0.328h0.069V54.687C98.983,47.86,93.429,42.305,86.601,42.305z"
   id="path3018" />
	<path
   d="M42.272,60.336c-2.189-2.099-3.575-5.017-3.677-8.255c-0.301-0.022-0.6-0.046-0.908-0.046h-8.203   c-6.828,0-12.383,5.555-12.383,12.382v10.037l0.025,0.156l0.691,0.217c5.227,1.633,9.893,2.384,13.944,2.621v-3.03   C31.763,67.77,36.202,62.142,42.272,60.336z"
   id="path3020" />
	<path
   d="M54.658,62.019h-8.205c-6.828,0-12.383,5.556-12.383,12.382v10.037l0.026,0.157l0.69,0.216   c6.516,2.035,12.177,2.715,16.836,2.715c9.1,0,14.375-2.595,14.701-2.76l0.646-0.328h0.068V74.401   C67.039,67.574,61.485,62.019,54.658,62.019z"
   id="path3022" />
	<path
   d="M17.502,41.954c1.463,0,2.844-0.335,4.086-0.916c0.39-3.755,2.527-6.99,5.576-8.902c-0.08-5.271-4.371-9.523-9.662-9.523   c-5.343,0-9.671,4.329-9.671,9.671C7.831,37.625,12.159,41.954,17.502,41.954z"
   id="path3024" />
	<path
   d="M25.218,50.915c-2.198-2.109-3.589-5.044-3.677-8.302h-8.143c-6.828,0-12.382,5.555-12.382,12.382v10.037h0.069   l0.646,0.328c0.306,0.154,4.939,2.432,12.979,2.728v-3.092C14.71,58.348,19.149,52.72,25.218,50.915z"
   id="path3026" />
	<path
   d="M28.812,31.079c1.16-0.47,2.93-1.047,4.62-1.047c1.967,0,3.891,0.506,5.607,1.469c0.382-0.375,0.732-0.783,1.05-1.22   c-1.63-2.141-2.52-4.765-2.52-7.464c0-1.818,0.406-3.622,1.18-5.261c-1.762-1.592-4.01-2.461-6.399-2.461   c-4.348,0-8.133,2.943-9.241,7.088C26.357,24.073,28.473,27.377,28.812,31.079z"
   id="path3028" />
	<path
   d="M60.133,29.734c0.336,0.534,0.729,1.037,1.175,1.505c1.588-0.792,3.334-1.208,5.092-1.208c1.729,0,3.386,0.442,4.472,0.813   c0.34-4.013,2.766-7.555,6.4-9.35c-1.332-3.805-4.938-6.402-9.021-6.402c-2.64,0-5.14,1.084-6.946,2.992   c0.634,1.512,0.955,3.101,0.955,4.73C62.26,25.308,61.526,27.686,60.133,29.734z"
   id="path3030" />
</g>
<path
   style="fill:#ffffff"
   d="M 42.619572,86.495798 C 40.96076,86.180614 38.434277,85.594656 37.005165,85.193667 l -2.598385,-0.72907 0,-6.072336 c 0,-7.276331 0.646439,-9.562305 3.49171,-12.347584 2.847082,-2.787052 5.202066,-3.6197 10.876152,-3.845465 9.915764,-0.394537 14.320322,1.62884 17.068179,7.840827 0.732291,1.655465 0.935496,3.142237 1.102729,8.068221 l 0.20501,6.038781 -1.539465,0.643229 c -3.817416,1.595019 -6.463509,2.026576 -13.195841,2.152141 -4.441993,0.08285 -7.819603,-0.07115 -9.795682,-0.446613 z"
   id="path3108"
   inkscape:connector-curvature="0" /><path
   style="fill:#ffffff"
   d="m 27.20339,76.648463 c -2.213983,-0.299138 -5.264831,-0.896041 -6.779661,-1.326454 l -2.754237,-0.782567 0,-6.74006 c 0,-6.237909 0.07378,-6.88212 0.990373,-8.64684 1.319908,-2.541235 3.073755,-4.31354 5.491501,-5.549292 1.788823,-0.914298 2.632155,-1.032466 8.242702,-1.154964 l 6.25,-0.13646 0.0042,1.195782 c 0.0049,1.428568 1.688598,5.192301 2.695208,6.025021 0.648967,0.53686 0.55263,0.664899 -1.035135,1.375763 -2.565548,1.148629 -4.797616,3.061813 -6.23341,5.342871 -1.592627,2.530221 -2.133056,4.232867 -2.530543,7.972598 l -0.315526,2.968487 -4.025424,-0.543885 z"
   id="path3110"
   inkscape:connector-curvature="0" /><path
   style="fill:#ffffff"
   d="M 7.7118644,66.968608 C 6.1970339,66.643483 4.1472458,66.070837 3.1567797,65.696062 l -1.8008475,-0.681408 0,-6.033539 c 0,-7.173492 0.4977173,-9.046125 3.2044896,-12.056707 2.751843,-3.060712 5.0966596,-3.919006 11.4569372,-4.193687 l 5.16891,-0.223229 0.489797,2.359338 c 0.274241,1.321011 1.05258,3.136238 1.768582,4.12465 0.703332,0.970922 1.217073,1.800901 1.141645,1.844397 -0.07543,0.0435 -0.862119,0.40877 -1.748205,0.811719 -4.545259,2.066964 -7.901664,7.310485 -8.260714,12.905242 l -0.197295,3.074281 -1.956989,-0.03369 C 11.346747,67.574905 9.2266949,67.293734 7.7118644,66.968608 z"
   id="path3112"
   inkscape:connector-curvature="0" /><path
   style="fill:#ffffff"
   d="M 14.549609,41.199515 C 12.438592,40.435572 9.8366233,38.068922 8.9419999,36.099051 6.1748022,30.005962 10.728919,23.0014 17.457627,23.0014 c 3.791489,0 7.214922,2.266094 8.663963,5.73499 0.974817,2.333641 0.819361,3.181785 -0.852193,4.649428 -1.628125,1.429513 -3.574482,4.850552 -3.574482,6.282734 0,1.753601 -4.101629,2.632421 -7.145306,1.530963 z"
   id="path3114"
   inkscape:connector-curvature="0" /><path
   style="fill:#ffffff"
   d="m 29.957627,50.335651 c -6.875908,-3.249 -7.672056,-12.349579 -1.441114,-16.473021 2.03428,-1.346223 5.761587,-1.792879 8.212215,-0.984099 3.152707,1.040487 6.11989,4.782883 6.143322,7.748341 0.0058,0.735806 -0.600868,1.949647 -1.616834,3.234941 -0.894377,1.131471 -1.866348,2.915162 -2.159937,3.963757 -0.626999,2.239423 -1.62694,2.850987 -5.112228,3.12664 -1.704789,0.134833 -2.785577,-0.03071 -4.025424,-0.616559 z"
   id="path3116"
   inkscape:connector-curvature="0" /><path
   style="fill:#ffffff"
   d="m 48.601695,60.884084 c -5.868967,-1.470866 -9.028807,-7.672056 -6.616048,-12.984002 1.626292,-3.580455 6.142103,-6.11794 9.83642,-5.527195 8.96839,1.434103 10.971465,13.502545 2.923696,17.615141 -1.830361,0.935357 -4.458101,1.318589 -6.144068,0.896056 z"
   id="path3118"
   inkscape:connector-curvature="0" /><path
   style="fill:#ffffff"
   d="M 69.460981,73.924085 C 69.062007,68.103174 65.927717,63.262626 61.080393,60.981237 l -1.689444,-0.795135 1.056937,-1.432599 c 1.01429,-1.374792 1.550352,-2.701761 2.106877,-5.215367 l 0.257993,-1.165255 4.92158,0 c 2.706869,0 5.640514,0.215398 6.519212,0.478663 2.746906,0.822993 5.548108,3.295646 7.07498,6.245167 1.379781,2.66538 1.383336,2.688412 1.383336,8.960714 l 0,6.288466 -2.224576,0.828951 c -2.287999,0.852586 -5.410637,1.537046 -8.838871,1.937418 l -1.953278,0.228117 -0.234158,-3.416292 0,0 z"
   id="path3120"
   inkscape:connector-curvature="0" /><path
   style="fill:#ffffff"
   d="m 63.711382,50.565787 c -0.627694,-0.33119 -1.260797,-1.327557 -1.723907,-2.713052 -0.796709,-2.383532 -2.555263,-4.955416 -3.869106,-5.658563 -1.709748,-0.91503 -0.451122,-5.103633 2.244872,-7.470748 2.004029,-1.759561 4.102312,-2.400182 7.141485,-2.180348 3.340197,0.241608 5.673604,1.839139 7.262223,4.971968 1.93069,3.80741 1.320976,7.831881 -1.63427,10.787126 -2.470295,2.470295 -6.977263,3.553166 -9.421297,2.263617 l 0,0 z"
   id="path3122"
   inkscape:connector-curvature="0" /><path
   style="fill:#ffffff"
   d="m 44.990694,39.389156 c -0.0051,-0.666154 -0.377152,-2.021571 -0.826741,-3.012037 l -0.817434,-1.800848 6.738227,0 6.738227,0 -0.817435,1.800848 c -0.449589,0.990466 -0.821622,2.189502 -0.826741,2.664525 -0.0087,0.807351 -0.264924,0.86262 -3.928797,0.847458 -2.15572,-0.0089 -4.443856,0.147459 -5.084746,0.347512 -1.083205,0.33812 -1.165909,0.278448 -1.17456,-0.847458 z"
   id="path3124"
   inkscape:connector-curvature="0" /><path
   style="fill:#ffffff"
   d="m 47.53963,32.933858 c -6.285914,-2.058164 -9.29097,-8.532007 -6.621464,-14.264733 1.742548,-3.742099 5.010144,-5.787769 9.244935,-5.787769 10.588376,0 13.891165,14.358898 4.42266,19.227544 -1.826835,0.939347 -5.414063,1.359339 -7.046131,0.824958 l 0,0 z"
   id="path3126"
   inkscape:connector-curvature="0" /><path
   style="fill:#ffffff"
   d="m 36.737288,30.467468 c -1.675083,-0.612932 -5.570777,-0.582921 -7.057224,0.05437 -0.547059,0.234542 -0.768107,-0.0088 -1.0051,-1.106347 -0.500475,-2.317824 -1.761943,-4.404793 -3.627895,-6.001978 l -1.761822,-1.508054 1.135036,-1.936793 c 1.630241,-2.781796 3.934488,-4.173552 7.260544,-4.385339 2.153346,-0.137115 3.072001,0.01707 4.648353,0.780169 1.941114,0.939677 1.960378,0.969402 1.610092,2.484459 -0.690154,2.985061 -0.387341,7.31858 0.650381,9.307535 0.886777,1.699645 0.968339,3.100111 0.173646,2.981561 -0.182103,-0.02717 -1.093807,-0.328477 -2.026011,-0.669581 z"
   id="path3128"
   inkscape:connector-curvature="0" /><path
   style="fill:#ffffff"
   d="m 60.846045,30.33757 c -0.336949,-0.336949 -0.22397,-0.950885 0.411256,-2.234791 1.031391,-2.084627 1.416852,-6.459418 0.740168,-8.400554 -0.576833,-1.654704 -0.14384,-2.300561 2.282192,-3.404139 3.990595,-1.815281 8.969222,-0.521862 11.427932,2.968912 l 1.25844,1.786682 -2.01452,1.721959 c -2.065522,1.765554 -3.363575,3.819604 -3.855382,6.100786 l -0.278477,1.291678 -3.692725,-0.02049 c -2.030999,-0.01127 -4.170082,0.131389 -4.753517,0.317021 -0.65215,0.207496 -1.239757,0.158548 -1.525367,-0.127062 l 0,-1e-6 z"
   id="path3130"
   inkscape:connector-curvature="0" /><path
   style="fill:#ffffff"
   d="m 79.467875,40.933762 c -0.559792,-0.225792 -1.030724,-0.912659 -1.216287,-1.773988 -0.469666,-2.180047 -1.401141,-3.780508 -3.407452,-5.854689 -1.820691,-1.882281 -1.838572,-1.929625 -1.391734,-3.684803 0.576804,-2.265685 2.99767,-5.104162 5.210392,-6.109211 5.05067,-2.294084 11.240862,0.564466 12.794345,5.908262 1.744747,6.001717 -2.807257,11.99248 -9.049461,11.909741 -1.114478,-0.01477 -2.437389,-0.192663 -2.939803,-0.395312 z"
   id="path3132"
   inkscape:connector-curvature="0" /><path
   style="fill:#ffffff"
   d="m 85.369661,63.827833 c -0.25531,-2.022688 -0.888692,-4.580683 -1.407517,-5.684434 -1.205123,-2.56379 -4.033927,-5.392641 -6.742037,-6.742149 -1.889416,-0.941536 -2.044151,-1.118736 -1.424489,-1.631304 0.992828,-0.821242 2.669932,-4.59464 2.674819,-6.018207 l 0.0041,-1.205888 5.826271,0.157516 c 6.544705,0.176939 7.876473,0.614472 10.798084,3.547548 2.952154,2.963739 3.469847,4.651132 3.646233,11.884699 l 0.156019,6.398326 -1.729242,0.691906 c -2.02521,0.810328 -6.64859,1.842482 -9.403315,2.099257 l -1.934765,0.180344 -0.4642,-3.677614 0,0 z"
   id="path3134"
   inkscape:connector-curvature="0" /></svg>