<?xml version="1.0" encoding="UTF-8" standalone="no"?>
<!-- Generator: Adobe Illustrator 15.0.0, SVG Export Plug-In . SVG Version: 6.00 Build 0)  -->

<svg
   xmlns:dc="http://purl.org/dc/elements/1.1/"
   xmlns:cc="http://creativecommons.org/ns#"
   xmlns:rdf="http://www.w3.org/1999/02/22-rdf-syntax-ns#"
   xmlns:svg="http://www.w3.org/2000/svg"
   xmlns="http://www.w3.org/2000/svg"
   xmlns:sodipodi="http://sodipodi.sourceforge.net/DTD/sodipodi-0.dtd"
   xmlns:inkscape="http://www.inkscape.org/namespaces/inkscape"
   version="1.1"
   id="Icons"
   x="0px"
   y="0px"
   width="100px"
   height="100px"
   viewBox="0 0 100 100"
   style="enable-background:new 0 0 100 100;"
   xml:space="preserve"
   inkscape:version="0.48.5 r10040"
   sodipodi:docname="near.svg"><metadata
   id="metadata3055"><rdf:RDF><cc:Work
       rdf:about=""><dc:format>image/svg+xml</dc:format><dc:type
         rdf:resource="http://purl.org/dc/dcmitype/StillImage" /></cc:Work></rdf:RDF></metadata><defs
   id="defs3053" /><sodipodi:namedview
   pagecolor="#ffffff"
   bordercolor="#666666"
   borderopacity="1"
   objecttolerance="10"
   gridtolerance="10"
   guidetolerance="10"
   inkscape:pageopacity="0"
   inkscape:pageshadow="2"
   inkscape:window-width="1366"
   inkscape:window-height="715"
   id="namedview3051"
   showgrid="false"
   inkscape:zoom="2.36"
   inkscape:cx="50"
   inkscape:cy="50"
   inkscape:window-x="-8"
   inkscape:window-y="-8"
   inkscape:window-maximized="1"
   inkscape:current-layer="Icons" />
<path
   id="Facebook_Places"
   d="M79.535,27.4c-0.32-1.201-0.971-2.48-1.452-3.6C72.324,9.96,59.741,5,49.581,5  C35.98,5,21,14.12,19,32.919v3.841c0,0.16,0.055,1.6,0.134,2.32c1.121,8.959,8.19,18.48,13.47,27.439  c5.68,9.599,11.574,19.041,17.414,28.48c3.6-6.159,7.188-12.399,10.706-18.4c0.96-1.76,2.073-3.52,3.033-5.2  c0.64-1.119,1.862-2.239,2.421-3.28C71.857,57.72,81,47.24,81,36.92v-4.24C81,31.561,79.614,27.641,79.535,27.4z M49.83,46.68  c-3.998,0-8.374-1.999-10.534-7.52C38.974,38.281,39,36.52,39,36.359v-2.48c0-7.038,5.976-10.239,11.175-10.239  c6.4,0,11.351,5.121,11.351,11.521C61.525,41.561,56.23,46.68,49.83,46.68z" />
<path
   style="fill:#ffffff;stroke:none"
   d="M 45.887688,87.844661 C 35.47895,71.007729 23.565453,50.99922 22.244048,48.135593 19.233924,41.612325 18.503132,36.013207 19.822137,29.579594 22.672498,15.676602 33.763381,6.1696347 47.966102,5.4549385 61.530386,4.7723692 72.482682,11.617029 77.952369,24.194915 c 2.100817,4.830958 2.640851,7.220421 2.640851,11.684816 0,4.756555 -0.861728,8.100293 -3.376911,13.10332 C 75.541703,52.314059 66.433208,67.342852 63.950525,70.871267 63.156233,72.000123 59.873017,77.5 56.654486,83.09322 c -3.21853,5.593221 -6.061063,10.400861 -6.316739,10.683644 -0.349615,0.386687 -1.452886,-1.084042 -4.450059,-5.932203 l 0,0 z m 9.688534,-42.49495 c 3.966063,-2.158603 5.954939,-5.584009 5.939897,-10.230169 -0.02148,-6.63349 -4.803575,-11.545709 -11.249958,-11.556081 -4.858699,-0.0078 -8.590236,2.07914 -10.399237,5.816036 -1.30558,2.69697 -1.428556,8.861012 -0.222029,11.128978 1.584292,2.978067 4.280702,5.200267 7.261885,5.984756 2.44972,0.644637 6.322591,0.133796 8.669442,-1.14352 z"
   id="path3136"
   inkscape:connector-curvature="0" /></svg>