<?xml version="1.0" encoding="UTF-8" standalone="no"?>
<!-- Generator: Adobe Illustrator 16.0.4, SVG Export Plug-In . SVG Version: 6.00 Build 0)  -->

<svg
   xmlns:dc="http://purl.org/dc/elements/1.1/"
   xmlns:cc="http://creativecommons.org/ns#"
   xmlns:rdf="http://www.w3.org/1999/02/22-rdf-syntax-ns#"
   xmlns:svg="http://www.w3.org/2000/svg"
   xmlns="http://www.w3.org/2000/svg"
   xmlns:sodipodi="http://sodipodi.sourceforge.net/DTD/sodipodi-0.dtd"
   xmlns:inkscape="http://www.inkscape.org/namespaces/inkscape"
   version="1.1"
   id="Capa_1"
   x="0px"
   y="0px"
   width="12px"
   height="32px"
   viewBox="0 0 12 32"
   enable-background="new 0 0 12 32"
   xml:space="preserve"
   inkscape:version="0.48.5 r10040"
   sodipodi:docname="temperature.svg"><metadata
   id="metadata3068"><rdf:RDF><cc:Work
       rdf:about=""><dc:format>image/svg+xml</dc:format><dc:type
         rdf:resource="http://purl.org/dc/dcmitype/StillImage" /></cc:Work></rdf:RDF></metadata><defs
   id="defs3066" /><sodipodi:namedview
   pagecolor="#ffffff"
   bordercolor="#666666"
   borderopacity="1"
   objecttolerance="10"
   gridtolerance="10"
   guidetolerance="10"
   inkscape:pageopacity="0"
   inkscape:pageshadow="2"
   inkscape:window-width="1366"
   inkscape:window-height="715"
   id="namedview3064"
   showgrid="false"
   inkscape:zoom="10.429825"
   inkscape:cx="-20.011307"
   inkscape:cy="7.6393046"
   inkscape:window-x="-8"
   inkscape:window-y="-8"
   inkscape:window-maximized="1"
   inkscape:current-layer="Capa_1" />
<g
   id="g3058">
	<path
   d="M 10,21.527 V 4.006 C 10,1.793 8.205,0 6,0 3.791,0 2,1.787 2,4.006 V 21.527 C 0.772,22.626 0,24.223 0,26 c 0,3.312 2.687,6 6,6 3.312,0 6,-2.688 6,-6 0,-1.777 -0.771,-3.374 -2,-4.473 z M 6,30 C 3.791,30 2,28.209 2,26 2,24.52 2.805,23.227 4,22.535 V 4.005 C 4,2.897 4.896,2 6,2 7.111,2 8,2.897 8,4.005 v 18.53 c 1.195,0.691 2,1.984 2,3.465 0,2.209 -1.791,4 -4,4 z"
   id="path3060"
   inkscape:connector-curvature="0" />
	<path
   d="M 6.984,23.166 C 6.995,23.111 7,23.055 7,22.997 V 13.003 C 7,12.449 6.557,12 6,12 5.447,12 5,12.456 5,13.003 v 9.994 c 0,0.058 0.005,0.114 0.014,0.169 C 3.842,23.573 3,24.688 3,26 c 0,1.657 1.343,3 3,3 1.657,0 3,-1.343 3,-3 0,-1.312 -0.842,-2.427 -2.016,-2.834 z"
   id="path3062"
   inkscape:connector-curvature="0" />
</g>
<path
   style="fill:#ffffff"
   d="M 5.3678336,31.888982 C 2.2411578,31.557745 -0.11662402,28.783169 0.07851292,25.664648 0.16533607,24.27711 0.69779868,23.013156 1.5960284,22.062386 L 2.0553591,21.576188 2.0816552,12.330679 2.1079514,3.0851707 2.4281025,2.4023048 C 3.0941646,0.98162754 4.4949424,0.06498579 5.9999062,0.06498579 c 1.679612,0 3.1684465,1.09915391 3.7403257,2.76135031 0.1735284,0.5043669 0.1818487,0.9426359 0.1818487,9.5782969 l 0,9.049744 0.4755924,0.571483 c 0.979369,1.176831 1.429191,2.248075 1.511243,3.599002 0.22318,3.674433 -2.8854094,6.651399 -6.5410824,6.26412 z M 7.3913845,29.77241 C 9.1214876,29.135766 10.099439,27.621806 10.00033,25.73352 9.9671667,25.101675 9.8974551,24.806369 9.6633802,24.306162 9.3381795,23.611225 8.8326168,22.996808 8.3308138,22.686677 l -0.3263109,-0.201672 0,-9.517049 0,-9.5170489 L 7.7814145,3.0283417 C 7.6587159,2.7959307 7.3745535,2.4763398 7.1499426,2.3181396 6.7813312,2.0585156 6.6693131,2.0305029 5.9997319,2.0305029 c -0.6330143,0 -0.7937246,0.035159 -1.0956351,0.2396973 C 4.7095025,2.4020336 4.432218,2.6824794 4.287909,2.8934129 l -0.2623798,0.3835156 -0.025321,9.5997545 -0.025321,9.599755 -0.3993176,0.27577 c -0.9027934,0.623474 -1.611437,2.026318 -1.611437,3.190033 0,2.843607 2.7788552,4.804726 5.4272514,3.830169 z"
   id="path3092"
   inkscape:connector-curvature="0" /><path
   style="fill:#ffffff"
   d="M 5.2240152,28.83965 C 4.7047804,28.670783 4.1881869,28.345411 3.8566249,27.978412 3.3971202,27.469796 3.2472054,27.162514 3.122173,26.473002 3.0046561,25.824936 3.1575681,25.017309 3.5038791,24.456965 3.7555885,24.049691 4.335322,23.533092 4.7190143,23.374161 l 0.3085629,-0.12781 0.02631,-5.308488 0.02631,-5.308489 0.2636669,-0.263615 c 0.3679696,-0.367897 0.9263954,-0.367897 1.294365,0 l 0.2636669,0.263615 0.026313,5.310589 0.026313,5.310588 0.2833416,0.09877 c 0.4471124,0.155863 1.2017323,0.926883 1.448381,1.479858 0.3016538,0.676292 0.3019795,1.643881 7.862e-4,2.331063 -0.2501095,0.570629 -0.838722,1.176238 -1.4495564,1.491412 C 6.77669,28.889411 5.6892234,28.990945 5.2240169,28.83965 l -1.7e-6,0 z"
   id="path3094"
   inkscape:connector-curvature="0" /></svg>