<?xml version="1.0" encoding="UTF-8" standalone="no"?>
<!-- Generator: Adobe Illustrator 16.0.4, SVG Export Plug-In . SVG Version: 6.00 Build 0)  -->

<svg
   xmlns:osb="http://www.openswatchbook.org/uri/2009/osb"
   xmlns:dc="http://purl.org/dc/elements/1.1/"
   xmlns:cc="http://creativecommons.org/ns#"
   xmlns:rdf="http://www.w3.org/1999/02/22-rdf-syntax-ns#"
   xmlns:svg="http://www.w3.org/2000/svg"
   xmlns="http://www.w3.org/2000/svg"
   xmlns:xlink="http://www.w3.org/1999/xlink"
   xmlns:sodipodi="http://sodipodi.sourceforge.net/DTD/sodipodi-0.dtd"
   xmlns:inkscape="http://www.inkscape.org/namespaces/inkscape"
   version="1.1"
   id="Capa_1"
   x="0px"
   y="0px"
   width="12px"
   height="32px"
   viewBox="0 0 12 32"
   enable-background="new 0 0 12 32"
   xml:space="preserve"
   inkscape:version="0.48.4 r9939"
   sodipodi:docname="temperature.svg"><metadata
     id="metadata3068"><rdf:RDF><cc:Work
         rdf:about=""><dc:format>image/svg+xml</dc:format><dc:type
           rdf:resource="http://purl.org/dc/dcmitype/StillImage" /></cc:Work></rdf:RDF></metadata><defs
     id="defs3066"><linearGradient
       id="linearGradient6830"
       osb:paint="solid"><stop
         style="stop-color:#fb8521;stop-opacity:1;"
         offset="0"
         id="stop6832" /></linearGradient><linearGradient
       id="linearGradient6824"
       osb:paint="solid"><stop
         style="stop-color:#fb8521;stop-opacity:1;"
         offset="0"
         id="stop6826" /></linearGradient><linearGradient
       id="linearGradient5274"
       osb:paint="solid"><stop
         style="stop-color:#fb8521;stop-opacity:1;"
         offset="0"
         id="stop5276" /></linearGradient><linearGradient
       id="linearGradient5268"
       osb:paint="solid"><stop
         style="stop-color:#fb8521;stop-opacity:1;"
         offset="0"
         id="stop5270" /></linearGradient><linearGradient
       id="linearGradient5262"
       osb:paint="solid"><stop
         style="stop-color:#fb8521;stop-opacity:1;"
         offset="0"
         id="stop5264" /></linearGradient><linearGradient
       inkscape:collect="always"
       xlink:href="#linearGradient6824"
       id="linearGradient6828"
       x1="0"
       y1="16"
       x2="12"
       y2="16"
       gradientUnits="userSpaceOnUse" /><linearGradient
       inkscape:collect="always"
       xlink:href="#linearGradient6830"
       id="linearGradient6834"
       x1="3"
       y1="20.5"
       x2="9"
       y2="20.5"
       gradientUnits="userSpaceOnUse" /></defs><sodipodi:namedview
     pagecolor="#ffffff"
     bordercolor="#666666"
     borderopacity="1"
     objecttolerance="10"
     gridtolerance="10"
     guidetolerance="10"
     inkscape:pageopacity="0"
     inkscape:pageshadow="2"
     inkscape:window-width="1364"
     inkscape:window-height="720"
     id="namedview3064"
     showgrid="false"
     inkscape:zoom="10.429825"
     inkscape:cx="-20.011307"
     inkscape:cy="22.979926"
     inkscape:window-x="0"
     inkscape:window-y="0"
     inkscape:window-maximized="1"
     inkscape:current-layer="g3058" /><g
     id="g3058"><path
       d="M 10,21.527 V 4.006 C 10,1.793 8.205,0 6,0 3.791,0 2,1.787 2,4.006 V 21.527 C 0.772,22.626 0,24.223 0,26 c 0,3.312 2.687,6 6,6 3.312,0 6,-2.688 6,-6 0,-1.777 -0.771,-3.374 -2,-4.473 z M 6,30 C 3.791,30 2,28.209 2,26 2,24.52 2.805,23.227 4,22.535 V 4.005 C 4,2.897 4.896,2 6,2 7.111,2 8,2.897 8,4.005 v 18.53 c 1.195,0.691 2,1.984 2,3.465 0,2.209 -1.791,4 -4,4 z"
       id="path3060"
       inkscape:connector-curvature="0"
       style="fill:url(#linearGradient6828);fill-opacity:1" /><path
       d="M 6.984,23.166 C 6.995,23.111 7,23.055 7,22.997 L 7,21.932717 7,13.003 C 7,12.449 6.557,12 6,12 5.447,12 5,12.456 5,13.003 l 0,9.994 c 0,0.058 0.005,0.114 0.014,0.169 C 3.842,23.573 3,24.688 3,26 c 0,1.657 1.343,3 3,3 1.657,0 3,-1.343 3,-3 0,-1.312 -0.842,-2.427 -2.016,-2.834 z"
       id="path3062"
       inkscape:connector-curvature="0"
       style="fill:url(#linearGradient6834);fill-opacity:1"
       sodipodi:nodetypes="cscsssscsssc" /></g></svg>